<svg xmlns="http://www.w3.org/2000/svg" xmlns:xlink="http://www.w3.org/1999/xlink" width="500" zoomAndPan="magnify" viewBox="0 0 375 374.999991" height="500" preserveAspectRatio="xMidYMid meet" version="1.0"><defs><clipPath id="849ab4084a"><path d="M 18.75 88 L 176 88 L 176 246 L 18.75 246 Z M 18.75 88 " clip-rule="nonzero"/></clipPath><clipPath id="5b20a8fab0"><path d="M 327 217 L 356.25 217 L 356.25 272 L 327 272 Z M 327 217 " clip-rule="nonzero"/></clipPath><clipPath id="f5ddf919c4"><path d="M 137 39.140625 L 183 39.140625 L 183 60 L 137 60 Z M 137 39.140625 " clip-rule="nonzero"/></clipPath><clipPath id="bbf06e18b5"><path d="M 137 39.140625 L 183 39.140625 L 183 60 L 137 60 Z M 137 39.140625 " clip-rule="nonzero"/></clipPath></defs><g clip-path="url(#849ab4084a)"><path fill="#f4f6ff" d="M 163.445312 245.875 L 31.011719 245.875 C 24.28125 245.875 18.777344 240.375 18.777344 233.640625 L 18.777344 101.210938 C 18.777344 94.476562 24.28125 88.976562 31.011719 88.976562 L 163.445312 88.976562 C 170.175781 88.976562 175.675781 94.476562 175.675781 101.210938 L 175.675781 233.640625 C 175.675781 240.457031 170.175781 245.875 163.445312 245.875 Z M 163.445312 245.875 " fill-opacity="1" fill-rule="nonzero"/></g><path fill="#f4f6ff" d="M 306.714844 219.273438 L 163.117188 219.273438 C 159.421875 219.273438 156.464844 216.316406 156.464844 212.625 L 156.464844 179.371094 C 156.464844 175.675781 159.421875 172.722656 163.117188 172.722656 L 306.714844 172.722656 C 310.40625 172.722656 313.363281 175.675781 313.363281 179.371094 L 313.363281 212.625 C 313.363281 216.234375 310.40625 219.273438 306.714844 219.273438 Z M 306.714844 219.273438 " fill-opacity="1" fill-rule="nonzero"/><path fill="#ffffff" d="M 237.5 81.832031 L 237.5 197.515625 C 237.5 202.03125 234.460938 205.726562 230.6875 205.726562 L 56.054688 205.726562 C 52.277344 205.726562 49.238281 202.03125 49.238281 197.515625 L 49.238281 81.832031 C 49.238281 77.316406 52.277344 73.625 56.054688 73.625 L 230.769531 73.625 C 234.460938 73.625 237.5 77.316406 237.5 81.832031 Z M 237.5 81.832031 " fill-opacity="1" fill-rule="nonzero"/><path fill="#332c5c" d="M 230.769531 206.054688 L 56.054688 206.054688 C 52.113281 206.054688 48.828125 202.195312 48.828125 197.433594 L 48.828125 81.832031 C 48.828125 77.070312 52.03125 73.214844 56.054688 73.214844 L 230.769531 73.214844 C 234.707031 73.214844 237.992188 77.070312 237.992188 81.832031 L 237.992188 197.515625 C 237.910156 202.195312 234.707031 206.054688 230.769531 206.054688 Z M 56.054688 74.035156 C 52.523438 74.035156 49.648438 77.484375 49.648438 81.832031 L 49.648438 197.515625 C 49.648438 201.785156 52.523438 205.316406 56.054688 205.316406 L 230.769531 205.316406 C 234.296875 205.316406 237.171875 201.785156 237.171875 197.515625 L 237.171875 81.832031 C 237.171875 77.566406 234.296875 74.035156 230.769531 74.035156 Z M 56.054688 74.035156 " fill-opacity="1" fill-rule="nonzero"/><path fill="#332c5c" d="M 237.582031 81.75 L 237.582031 96.695312 L 49.320312 96.695312 L 49.320312 81.75 C 49.320312 77.234375 52.359375 73.542969 56.136719 73.542969 L 230.851562 73.542969 C 234.542969 73.542969 237.582031 77.234375 237.582031 81.75 Z M 237.582031 81.75 " fill-opacity="1" fill-rule="nonzero"/><path fill="#f4f6ff" d="M 64.429688 85.527344 C 64.429688 85.769531 64.382812 86 64.289062 86.21875 C 64.199219 86.441406 64.070312 86.636719 63.898438 86.804688 C 63.730469 86.976562 63.535156 87.105469 63.3125 87.199219 C 63.09375 87.289062 62.863281 87.335938 62.621094 87.335938 C 62.382812 87.335938 62.152344 87.289062 61.929688 87.199219 C 61.710938 87.105469 61.515625 86.976562 61.34375 86.804688 C 61.175781 86.636719 61.042969 86.441406 60.953125 86.21875 C 60.863281 86 60.816406 85.769531 60.816406 85.527344 C 60.816406 85.289062 60.863281 85.058594 60.953125 84.835938 C 61.042969 84.617188 61.175781 84.421875 61.34375 84.25 C 61.515625 84.082031 61.710938 83.953125 61.929688 83.859375 C 62.152344 83.769531 62.382812 83.722656 62.621094 83.722656 C 62.863281 83.722656 63.09375 83.769531 63.3125 83.859375 C 63.535156 83.953125 63.730469 84.082031 63.898438 84.25 C 64.070312 84.421875 64.199219 84.617188 64.289062 84.835938 C 64.382812 85.058594 64.429688 85.289062 64.429688 85.527344 Z M 64.429688 85.527344 " fill-opacity="1" fill-rule="nonzero"/><path fill="#f4f6ff" d="M 72.308594 85.527344 C 72.308594 85.769531 72.265625 86 72.171875 86.21875 C 72.082031 86.441406 71.949219 86.636719 71.78125 86.804688 C 71.613281 86.976562 71.417969 87.105469 71.195312 87.199219 C 70.972656 87.289062 70.742188 87.335938 70.503906 87.335938 C 70.265625 87.335938 70.035156 87.289062 69.8125 87.199219 C 69.589844 87.105469 69.394531 86.976562 69.226562 86.804688 C 69.058594 86.636719 68.925781 86.441406 68.835938 86.21875 C 68.742188 86 68.699219 85.769531 68.699219 85.527344 C 68.699219 85.289062 68.742188 85.058594 68.835938 84.835938 C 68.925781 84.617188 69.058594 84.421875 69.226562 84.25 C 69.394531 84.082031 69.589844 83.953125 69.8125 83.859375 C 70.035156 83.769531 70.265625 83.722656 70.503906 83.722656 C 70.742188 83.722656 70.972656 83.769531 71.195312 83.859375 C 71.417969 83.953125 71.613281 84.082031 71.78125 84.25 C 71.949219 84.421875 72.082031 84.617188 72.171875 84.835938 C 72.265625 85.058594 72.308594 85.289062 72.308594 85.527344 Z M 72.308594 85.527344 " fill-opacity="1" fill-rule="nonzero"/><path fill="#f4f6ff" d="M 80.191406 85.527344 C 80.191406 85.769531 80.144531 86 80.054688 86.21875 C 79.960938 86.441406 79.832031 86.636719 79.664062 86.804688 C 79.492188 86.976562 79.296875 87.105469 79.078125 87.199219 C 78.855469 87.289062 78.625 87.335938 78.386719 87.335938 C 78.144531 87.335938 77.914062 87.289062 77.695312 87.199219 C 77.472656 87.105469 77.277344 86.976562 77.109375 86.804688 C 76.9375 86.636719 76.808594 86.441406 76.71875 86.21875 C 76.625 86 76.578125 85.769531 76.578125 85.527344 C 76.578125 85.289062 76.625 85.058594 76.71875 84.835938 C 76.808594 84.617188 76.9375 84.421875 77.109375 84.25 C 77.277344 84.082031 77.472656 83.953125 77.695312 83.859375 C 77.914062 83.769531 78.144531 83.722656 78.386719 83.722656 C 78.625 83.722656 78.855469 83.769531 79.078125 83.859375 C 79.296875 83.953125 79.492188 84.082031 79.664062 84.25 C 79.832031 84.421875 79.960938 84.617188 80.054688 84.835938 C 80.144531 85.058594 80.191406 85.289062 80.191406 85.527344 Z M 80.191406 85.527344 " fill-opacity="1" fill-rule="nonzero"/><path fill="#4154f1" d="M 270.421875 100.0625 L 270.421875 132 L 285.039062 122.804688 L 313.28125 122.804688 C 322.558594 122.804688 330.03125 115.332031 330.03125 106.054688 C 330.03125 96.777344 322.558594 89.304688 313.28125 89.304688 L 281.179688 89.304688 C 275.269531 89.304688 270.421875 94.148438 270.421875 100.0625 Z M 311.476562 106.136719 C 311.476562 104.496094 312.789062 103.179688 314.429688 103.179688 C 316.074219 103.179688 317.386719 104.496094 317.386719 106.136719 C 317.386719 107.777344 316.074219 109.09375 314.429688 109.09375 C 312.789062 109.09375 311.476562 107.777344 311.476562 106.136719 Z M 298.09375 106.136719 C 298.09375 104.496094 299.40625 103.179688 301.046875 103.179688 C 302.691406 103.179688 304.003906 104.496094 304.003906 106.136719 C 304.003906 107.777344 302.691406 109.09375 301.046875 109.09375 C 299.40625 109.09375 298.09375 107.777344 298.09375 106.136719 Z M 284.710938 106.136719 C 284.710938 104.496094 286.023438 103.179688 287.664062 103.179688 C 289.308594 103.179688 290.621094 104.496094 290.621094 106.136719 C 290.621094 107.777344 289.308594 109.09375 287.664062 109.09375 C 286.023438 109.09375 284.710938 107.777344 284.710938 106.136719 Z M 284.710938 106.136719 " fill-opacity="1" fill-rule="nonzero"/><path fill="#f2b2c3" d="M 215.199219 113.421875 C 215.765625 113.988281 216.273438 114.609375 216.71875 115.277344 C 217.164062 115.945312 217.539062 116.648438 217.84375 117.390625 C 218.152344 118.136719 218.382812 118.898438 218.539062 119.6875 C 218.695312 120.476562 218.773438 121.273438 218.773438 122.074219 C 218.769531 122.878906 218.691406 123.671875 218.535156 124.460938 C 218.375 125.25 218.144531 126.015625 217.835938 126.753906 C 217.527344 127.496094 217.148438 128.203125 216.703125 128.867188 C 216.253906 129.535156 215.746094 130.152344 215.179688 130.722656 C 214.609375 131.289062 213.992188 131.796875 213.324219 132.242188 C 212.65625 132.6875 211.949219 133.0625 211.207031 133.367188 C 210.464844 133.675781 209.699219 133.90625 208.910156 134.0625 C 208.125 134.21875 207.328125 134.296875 206.523438 134.292969 C 205.722656 134.292969 204.925781 134.214844 204.136719 134.058594 C 203.351562 133.898438 202.585938 133.667969 201.84375 133.359375 C 201.101562 133.050781 200.398438 132.671875 199.730469 132.226562 C 199.0625 131.777344 198.445312 131.269531 197.878906 130.703125 C 197.3125 130.132812 196.804688 129.515625 196.359375 128.847656 C 195.914062 128.179688 195.539062 127.472656 195.230469 126.730469 C 194.925781 125.988281 194.691406 125.222656 194.539062 124.433594 C 194.382812 123.648438 194.304688 122.851562 194.304688 122.046875 C 194.304688 121.246094 194.386719 120.449219 194.542969 119.660156 C 194.699219 118.875 194.933594 118.109375 195.242188 117.367188 C 195.550781 116.625 195.925781 115.921875 196.375 115.253906 C 196.820312 114.585938 197.328125 113.96875 197.898438 113.402344 C 198.464844 112.835938 199.085938 112.328125 199.753906 111.882812 C 200.421875 111.4375 201.128906 111.0625 201.871094 110.753906 C 202.613281 110.449219 203.378906 110.214844 204.164062 110.058594 C 204.953125 109.90625 205.75 109.828125 206.550781 109.828125 C 207.355469 109.828125 208.152344 109.90625 208.9375 110.066406 C 209.726562 110.222656 210.492188 110.457031 211.234375 110.765625 C 211.972656 111.074219 212.679688 111.449219 213.347656 111.898438 C 214.011719 112.34375 214.632812 112.851562 215.199219 113.421875 Z M 215.199219 113.421875 " fill-opacity="1" fill-rule="nonzero"/><path fill="#ffffff" d="M 210.40625 119.191406 C 210.40625 121.324219 208.683594 123.050781 206.546875 123.050781 C 204.414062 123.050781 202.769531 121.324219 202.769531 119.191406 C 202.769531 117.054688 204.496094 115.332031 206.628906 115.332031 C 208.765625 115.332031 210.40625 117.054688 210.40625 119.191406 Z M 210.40625 119.191406 " fill-opacity="1" fill-rule="nonzero"/><path fill="#ffffff" d="M 212.046875 128.796875 L 200.964844 128.796875 L 200.964844 127.15625 C 200.964844 125.429688 202.441406 123.953125 204.167969 123.953125 L 208.929688 123.953125 C 210.652344 123.953125 212.128906 125.347656 212.128906 127.15625 Z M 212.046875 128.796875 " fill-opacity="1" fill-rule="nonzero"/><path fill="#4154f1" d="M 174.445312 135.363281 L 68.039062 135.363281 L 68.203125 108.761719 L 174.527344 108.761719 Z M 174.445312 135.363281 " fill-opacity="1" fill-rule="nonzero"/><path fill="#ffffff" d="M 78.222656 115.742188 L 164.183594 115.742188 L 164.183594 117.464844 L 78.222656 117.464844 Z M 78.222656 115.742188 " fill-opacity="1" fill-rule="nonzero"/><path fill="#ffffff" d="M 164.183594 122.722656 L 78.140625 122.722656 L 78.222656 120.914062 L 164.183594 120.914062 Z M 164.183594 122.722656 " fill-opacity="1" fill-rule="nonzero"/><path fill="#ffffff" d="M 164.183594 127.894531 L 103.835938 127.894531 L 103.753906 126.167969 L 164.019531 126.167969 Z M 164.183594 127.894531 " fill-opacity="1" fill-rule="nonzero"/><path fill="#4154f1" d="M 180.851562 122.0625 L 177.402344 120.011719 L 173.871094 118.042969 L 173.871094 126.085938 L 177.320312 124.117188 Z M 180.851562 122.0625 " fill-opacity="1" fill-rule="nonzero"/><path fill="#f2b2c3" d="M 88.925781 155.535156 C 89.496094 156.101562 90.003906 156.71875 90.449219 157.386719 C 90.898438 158.054688 91.273438 158.757812 91.582031 159.5 C 91.890625 160.242188 92.125 161.007812 92.28125 161.796875 C 92.4375 162.582031 92.519531 163.378906 92.519531 164.183594 C 92.519531 164.984375 92.441406 165.78125 92.285156 166.570312 C 92.132812 167.355469 91.898438 168.121094 91.59375 168.863281 C 91.285156 169.605469 90.910156 170.3125 90.464844 170.980469 C 90.019531 171.648438 89.511719 172.265625 88.945312 172.835938 C 88.378906 173.40625 87.761719 173.914062 87.09375 174.359375 C 86.425781 174.804688 85.722656 175.183594 84.980469 175.492188 C 84.238281 175.800781 83.472656 176.035156 82.6875 176.191406 C 81.898438 176.347656 81.101562 176.429688 80.300781 176.429688 C 79.496094 176.429688 78.699219 176.351562 77.914062 176.195312 C 77.125 176.039062 76.359375 175.808594 75.617188 175.503906 C 74.875 175.195312 74.167969 174.820312 73.5 174.375 C 72.832031 173.929688 72.214844 173.421875 71.644531 172.855469 C 71.078125 172.289062 70.570312 171.671875 70.121094 171.003906 C 69.675781 170.335938 69.296875 169.632812 68.988281 168.890625 C 68.679688 168.148438 68.449219 167.382812 68.289062 166.597656 C 68.132812 165.808594 68.054688 165.011719 68.054688 164.210938 C 68.050781 163.40625 68.128906 162.609375 68.285156 161.824219 C 68.441406 161.035156 68.671875 160.269531 68.980469 159.527344 C 69.285156 158.785156 69.660156 158.078125 70.105469 157.410156 C 70.550781 156.742188 71.058594 156.125 71.625 155.554688 C 72.195312 154.988281 72.8125 154.480469 73.476562 154.03125 C 74.144531 153.585938 74.851562 153.207031 75.59375 152.898438 C 76.332031 152.589844 77.097656 152.359375 77.886719 152.199219 C 78.671875 152.042969 79.46875 151.964844 80.273438 151.960938 C 81.074219 151.960938 81.871094 152.039062 82.660156 152.195312 C 83.445312 152.351562 84.210938 152.582031 84.953125 152.886719 C 85.695312 153.195312 86.402344 153.570312 87.070312 154.015625 C 87.738281 154.460938 88.359375 154.96875 88.925781 155.535156 Z M 88.925781 155.535156 " fill-opacity="1" fill-rule="nonzero"/><path fill="#ffffff" d="M 82.945312 158.640625 C 83.304688 159.003906 83.585938 159.417969 83.785156 159.886719 C 83.984375 160.359375 84.089844 160.84375 84.09375 161.351562 C 84.101562 161.859375 84.007812 162.34375 83.820312 162.808594 C 83.632812 163.277344 83.363281 163.6875 83.007812 164.039062 C 82.65625 164.394531 82.246094 164.667969 81.78125 164.855469 C 81.3125 165.046875 80.828125 165.136719 80.320312 165.132812 C 79.816406 165.128906 79.328125 165.027344 78.855469 164.828125 C 78.386719 164.628906 77.972656 164.351562 77.609375 163.988281 C 77.246094 163.628906 76.964844 163.210938 76.765625 162.742188 C 76.566406 162.273438 76.464844 161.785156 76.457031 161.277344 C 76.453125 160.773438 76.542969 160.285156 76.730469 159.820312 C 76.921875 159.355469 77.191406 158.945312 77.542969 158.589844 C 77.898438 158.234375 78.308594 157.964844 78.773438 157.773438 C 79.238281 157.585938 79.726562 157.492188 80.230469 157.496094 C 80.738281 157.503906 81.226562 157.605469 81.695312 157.800781 C 82.164062 158 82.582031 158.28125 82.945312 158.640625 Z M 82.945312 158.640625 " fill-opacity="1" fill-rule="nonzero"/><path fill="#ffffff" d="M 74.773438 170.832031 L 85.855469 170.832031 L 85.855469 169.191406 C 85.855469 167.46875 84.378906 165.988281 82.65625 165.988281 L 77.894531 165.988281 C 76.167969 165.988281 74.691406 167.386719 74.691406 169.191406 Z M 74.773438 170.832031 " fill-opacity="1" fill-rule="nonzero"/><path fill="#4154f1" d="M 112.375 177.484375 L 218.78125 177.484375 L 218.617188 150.882812 L 112.292969 150.882812 Z M 112.375 177.484375 " fill-opacity="1" fill-rule="nonzero"/><path fill="#ffffff" d="M 122.640625 159.585938 L 208.601562 159.585938 L 208.601562 157.859375 L 122.640625 157.859375 Z M 122.640625 159.585938 " fill-opacity="1" fill-rule="nonzero"/><path fill="#ffffff" d="M 122.640625 164.757812 L 208.683594 164.757812 L 208.683594 163.035156 L 122.640625 163.035156 Z M 122.640625 164.757812 " fill-opacity="1" fill-rule="nonzero"/><path fill="#ffffff" d="M 122.722656 170.011719 L 182.984375 170.011719 L 183.148438 168.289062 L 122.804688 168.289062 Z M 122.722656 170.011719 " fill-opacity="1" fill-rule="nonzero"/><path fill="#4154f1" d="M 105.972656 164.183594 L 109.421875 162.128906 L 112.949219 160.078125 L 112.949219 164.183594 L 113.03125 168.207031 L 109.503906 166.234375 Z M 105.972656 164.183594 " fill-opacity="1" fill-rule="nonzero"/><path fill="#332c5c" d="M 245.019531 333.761719 L 161.359375 333.761719 L 161.359375 327.191406 L 245.019531 327.191406 Z M 245.019531 333.761719 " fill-opacity="1" fill-rule="nonzero"/><path fill="#f2b2c3" d="M 282.984375 235.285156 C 278.632812 253.839844 264.429688 319.109375 250.636719 316.730469 C 242.835938 315.332031 241.359375 306.796875 244.5625 289.636719 C 245.957031 282.328125 247.84375 274.609375 249.816406 267.46875 C 252.9375 256.382812 256.382812 246.695312 258.601562 241.933594 C 264.347656 229.371094 271.410156 217.46875 279.453125 223.953125 C 282.820312 226.582031 283.96875 231.097656 282.984375 235.285156 Z M 282.984375 235.285156 " fill-opacity="1" fill-rule="nonzero"/><path fill="#f2b2c3" d="M 269.683594 287.992188 C 265.824219 308.027344 255.5625 319.847656 249.734375 321.984375 C 246.53125 323.214844 228.304688 324.117188 212.707031 324.695312 C 200.0625 325.1875 189.058594 325.433594 189.058594 325.433594 L 190.621094 313.117188 L 240.539062 300.636719 C 241.441406 299.652344 247.84375 276.007812 249.816406 268.863281 C 250.144531 267.632812 250.390625 266.894531 250.390625 266.894531 C 250.390625 266.894531 251.867188 266.976562 254.003906 267.386719 C 260.242188 268.617188 272.558594 272.96875 269.683594 287.992188 Z M 269.683594 287.992188 " fill-opacity="1" fill-rule="nonzero"/><path fill="#f2b2c3" d="M 256.957031 311.0625 C 255.5625 315.664062 251.621094 319.929688 246.777344 320.09375 C 242.34375 320.261719 183.640625 329.457031 177.320312 322.066406 C 171.40625 315.25 250.390625 300.144531 253.347656 302.9375 C 256.628906 305.972656 258.847656 304.824219 256.957031 311.0625 Z M 256.957031 311.0625 " fill-opacity="1" fill-rule="nonzero"/><path fill="#332c5c" d="M 336.84375 247.925781 C 337.171875 247.1875 348.421875 232.574219 345.710938 216.5625 C 343.003906 200.472656 327.320312 189.632812 324.609375 176.828125 C 321.984375 164.265625 318.699219 156.546875 302.9375 151.703125 C 302.527344 151.539062 296.367188 148.746094 289.226562 150.144531 C 268.78125 154.167969 262.296875 167.796875 262.296875 187.089844 C 262.296875 206.382812 265.578125 226.992188 282.65625 244.152344 C 299.734375 261.308594 336.84375 247.925781 336.84375 247.925781 Z M 336.84375 247.925781 " fill-opacity="1" fill-rule="nonzero"/><path fill="#f2b2c3" d="M 287.335938 219.847656 C 287.335938 219.847656 299.40625 230.933594 299.652344 230.851562 C 299.898438 230.851562 326.828125 217.058594 318.042969 218.207031 C 312.460938 218.945312 309.996094 213.527344 308.929688 209.421875 C 308.683594 208.601562 308.519531 207.945312 308.4375 207.285156 C 308.355469 206.792969 308.273438 206.382812 308.273438 206.054688 C 308.191406 205.480469 308.191406 205.152344 308.191406 205.152344 C 308.191406 205.152344 290.949219 205.070312 289.226562 210.40625 C 289.0625 210.734375 289.0625 211.144531 289.0625 211.636719 C 289.226562 213.035156 289.226562 214.101562 289.144531 215.085938 C 289.0625 215.90625 288.980469 216.644531 288.816406 217.222656 C 288.320312 219.355469 287.335938 219.847656 287.335938 219.847656 Z M 287.335938 219.847656 " fill-opacity="1" fill-rule="nonzero"/><path fill="#332c5c" d="M 288.898438 215.578125 C 290.785156 216.152344 292.917969 216.316406 295.054688 216.152344 C 301.128906 215.578125 305.644531 212.378906 308.929688 207.78125 C 308.683594 206.957031 308.519531 206.300781 308.4375 205.644531 C 308.355469 205.152344 308.273438 204.742188 308.273438 204.414062 C 304.742188 204.496094 292.835938 204.988281 289.226562 208.765625 C 289.0625 209.09375 289.0625 209.503906 289.0625 209.996094 C 289.226562 211.390625 289.226562 212.460938 289.144531 213.445312 C 289.144531 214.347656 289.0625 215.003906 288.898438 215.578125 Z M 288.898438 215.578125 " fill-opacity="1" fill-rule="nonzero"/><path fill="#f2b2c3" d="M 272.804688 183.96875 C 274.035156 197.925781 281.835938 215.332031 295.792969 214.101562 C 309.75 212.871094 315.003906 196.121094 313.691406 182.164062 C 312.460938 168.207031 309.667969 155.234375 295.710938 156.464844 C 281.835938 157.777344 271.492188 170.011719 272.804688 183.96875 Z M 272.804688 183.96875 " fill-opacity="1" fill-rule="nonzero"/><path fill="#332c5c" d="M 282.3125 189 C 282.34375 189.347656 282.335938 189.683594 282.289062 190.011719 C 282.242188 190.339844 282.164062 190.632812 282.046875 190.890625 C 281.929688 191.148438 281.789062 191.351562 281.621094 191.5 C 281.453125 191.648438 281.269531 191.730469 281.074219 191.75 C 280.878906 191.765625 280.6875 191.71875 280.496094 191.601562 C 280.300781 191.484375 280.125 191.308594 279.964844 191.078125 C 279.804688 190.84375 279.671875 190.570312 279.570312 190.257812 C 279.464844 189.941406 279.398438 189.613281 279.367188 189.265625 C 279.335938 188.917969 279.34375 188.582031 279.390625 188.253906 C 279.433594 187.925781 279.515625 187.632812 279.632812 187.375 C 279.746094 187.117188 279.890625 186.914062 280.058594 186.765625 C 280.226562 186.617188 280.40625 186.535156 280.601562 186.515625 C 280.796875 186.5 280.992188 186.546875 281.183594 186.664062 C 281.375 186.78125 281.550781 186.957031 281.710938 187.1875 C 281.871094 187.421875 282.003906 187.695312 282.109375 188.007812 C 282.210938 188.324219 282.28125 188.652344 282.3125 189 Z M 282.3125 189 " fill-opacity="1" fill-rule="nonzero"/><path fill="#332c5c" d="M 299.875 187.355469 C 299.90625 187.703125 299.898438 188.039062 299.855469 188.367188 C 299.808594 188.695312 299.726562 188.988281 299.613281 189.246094 C 299.496094 189.503906 299.355469 189.707031 299.183594 189.855469 C 299.015625 190.003906 298.835938 190.089844 298.640625 190.105469 C 298.445312 190.125 298.25 190.074219 298.058594 189.957031 C 297.867188 189.839844 297.691406 189.667969 297.53125 189.433594 C 297.371094 189.199219 297.238281 188.925781 297.132812 188.613281 C 297.03125 188.300781 296.964844 187.96875 296.933594 187.621094 C 296.902344 187.277344 296.90625 186.9375 296.953125 186.609375 C 297 186.285156 297.078125 185.992188 297.195312 185.734375 C 297.3125 185.476562 297.453125 185.273438 297.621094 185.125 C 297.789062 184.972656 297.972656 184.890625 298.167969 184.875 C 298.363281 184.855469 298.554688 184.90625 298.75 185.019531 C 298.941406 185.136719 299.117188 185.3125 299.277344 185.546875 C 299.4375 185.777344 299.570312 186.050781 299.671875 186.367188 C 299.777344 186.679688 299.84375 187.007812 299.875 187.355469 Z M 299.875 187.355469 " fill-opacity="1" fill-rule="nonzero"/><path fill="#332c5c" d="M 277.074219 182 C 276.910156 182 276.828125 181.917969 276.746094 181.835938 C 276.582031 181.671875 276.664062 181.425781 276.828125 181.261719 C 279.125 179.535156 282 179.863281 282.984375 179.945312 C 283.066406 179.945312 283.148438 179.945312 283.230469 179.945312 C 283.476562 179.945312 283.640625 180.109375 283.640625 180.355469 C 283.640625 180.601562 283.476562 180.765625 283.230469 180.765625 C 283.148438 180.765625 283.066406 180.765625 282.902344 180.765625 C 282 180.683594 279.371094 180.355469 277.320312 181.917969 C 277.238281 182 277.15625 182 277.074219 182 Z M 277.074219 182 " fill-opacity="1" fill-rule="nonzero"/><path fill="#332c5c" d="M 294.5625 180.4375 C 294.398438 180.4375 294.316406 180.355469 294.234375 180.273438 C 294.070312 180.109375 294.152344 179.863281 294.316406 179.699219 C 296.613281 177.976562 299.488281 178.304688 300.472656 178.386719 C 300.554688 178.386719 300.636719 178.386719 300.71875 178.386719 C 300.964844 178.386719 301.128906 178.550781 301.128906 178.796875 C 301.128906 179.042969 300.964844 179.207031 300.71875 179.207031 C 300.636719 179.207031 300.554688 179.207031 300.390625 179.207031 C 299.488281 179.125 296.859375 178.796875 294.808594 180.355469 C 294.726562 180.4375 294.644531 180.4375 294.5625 180.4375 Z M 294.5625 180.4375 " fill-opacity="1" fill-rule="nonzero"/><path fill="#332c5c" d="M 290.539062 199.488281 C 290.457031 199.488281 290.457031 199.488281 290.375 199.488281 C 290.210938 199.40625 288.566406 198.664062 288.320312 197.515625 C 288.15625 196.449219 288.980469 192.671875 289.0625 192.261719 C 289.144531 192.015625 289.308594 191.933594 289.554688 191.933594 C 289.800781 192.015625 289.882812 192.179688 289.882812 192.425781 C 289.554688 194.066406 288.980469 196.695312 289.144531 197.351562 C 289.226562 198.007812 290.292969 198.582031 290.703125 198.75 C 290.949219 198.832031 291.03125 199.078125 290.949219 199.324219 C 290.867188 199.40625 290.703125 199.488281 290.539062 199.488281 Z M 290.539062 199.488281 " fill-opacity="1" fill-rule="nonzero"/><path fill="#332c5c" d="M 296.039062 203.429688 C 296.039062 203.429688 290.703125 209.996094 286.433594 203.839844 Z M 296.039062 203.429688 " fill-opacity="1" fill-rule="nonzero"/><path fill="#f2b2c3" d="M 291.03125 219.273438 C 291.03125 219.273438 288.320312 219.191406 283.230469 220.09375 C 281.753906 220.339844 280.03125 220.667969 278.140625 221.160156 C 277.402344 221.328125 276.664062 221.574219 275.925781 221.738281 C 268.289062 223.789062 265.496094 233.230469 262.953125 244.070312 C 262.214844 247.023438 261.554688 250.0625 260.734375 253.019531 C 257.039062 267.304688 267.632812 280.851562 269.355469 289.964844 C 271.082031 299.160156 269.191406 318.125 273.707031 320.425781 C 278.222656 322.722656 337.910156 323.296875 339.472656 321.902344 C 340.457031 321 344.234375 297.597656 348.011719 270.917969 C 349.898438 257.371094 351.046875 244.726562 350.144531 237.007812 C 348.832031 225.761719 341.523438 220.914062 334.382812 218.863281 C 333.230469 218.535156 332.082031 218.289062 330.933594 218.042969 C 324.777344 216.976562 319.601562 217.632812 319.601562 217.632812 Z M 291.03125 219.273438 " fill-opacity="1" fill-rule="nonzero"/><path fill="#4154f1" d="M 277.320312 220.667969 C 277.320312 220.667969 271.082031 220.832031 265.660156 228.222656 C 260.242188 235.613281 254.988281 246.121094 248.996094 268.371094 L 281.507812 278.550781 Z M 277.320312 220.667969 " fill-opacity="1" fill-rule="nonzero"/><path fill="#4154f1" d="M 346.777344 271.082031 C 343.003906 297.765625 332.820312 297.847656 341.769531 334.464844 C 341.769531 334.464844 267.878906 334.464844 267.386719 334.464844 C 252.605469 334.464844 268.617188 316.402344 268.617188 301.949219 C 268.617188 298.503906 268.535156 295.382812 268.371094 293 C 268.289062 291.933594 268.207031 291.113281 268.042969 290.375 C 268.042969 290.292969 267.960938 290.292969 267.960938 290.210938 C 267.796875 289.226562 267.46875 288.15625 267.140625 287.089844 C 266.8125 286.269531 266.566406 285.367188 266.152344 284.464844 C 266.070312 284.300781 265.988281 284.050781 265.90625 283.886719 C 262.378906 275.351562 256.464844 264.511719 259.339844 253.265625 C 259.503906 252.605469 259.667969 251.949219 259.832031 251.292969 C 260.816406 247.84375 262.460938 244.5625 264.59375 241.6875 C 266.152344 239.554688 266.8125 238.566406 268.371094 236.351562 C 271.574219 231.753906 275.183594 224.609375 276.746094 221.410156 C 277.238281 220.339844 281.835938 220.339844 281.835938 220.339844 C 280.359375 223.789062 276.089844 234.460938 278.632812 236.84375 C 281.671875 239.636719 315.25 238.074219 319.109375 234.132812 C 322.394531 230.769531 327.566406 220.667969 329.457031 218.042969 C 329.785156 217.632812 332.574219 218.125 333.066406 218.699219 C 333.066406 218.699219 333.066406 218.699219 332.984375 219.191406 C 331.917969 224.199219 324.035156 253.101562 346.777344 271.082031 Z M 346.777344 271.082031 " fill-opacity="1" fill-rule="nonzero"/><path fill="#f2b2c3" d="M 355.644531 292.425781 C 355.152344 306.054688 353.101562 316.402344 347.847656 317.222656 C 347.683594 317.222656 347.4375 317.304688 347.191406 317.304688 C 345.136719 317.386719 343.25 316.484375 341.605469 314.675781 C 341.441406 314.511719 341.277344 314.265625 341.113281 314.101562 C 340.867188 313.773438 340.539062 313.363281 340.292969 312.953125 C 339.800781 312.132812 339.226562 311.3125 338.816406 310.324219 C 337.417969 307.453125 336.1875 303.921875 335.121094 299.898438 C 334.300781 296.53125 333.558594 292.835938 332.902344 289.0625 C 332.410156 285.695312 331.917969 282.246094 331.589844 278.714844 C 331.261719 275.183594 330.933594 271.65625 330.769531 268.207031 C 330.769531 268.125 330.769531 268.125 330.769531 268.042969 C 330.6875 266.894531 330.605469 265.742188 330.605469 264.59375 C 330.523438 263.035156 330.441406 261.554688 330.441406 260.078125 C 330.195312 252.195312 330.359375 245.546875 330.769531 241.6875 C 331.015625 239.472656 331.261719 237.171875 331.671875 235.039062 C 331.753906 234.296875 331.917969 233.640625 332.082031 232.902344 C 332.984375 229.289062 333.726562 223.953125 336.351562 222.066406 C 337.007812 221.574219 337.746094 221.328125 338.734375 221.328125 C 342.015625 222.640625 344.5625 224.9375 346.53125 227.648438 C 347.191406 228.550781 347.765625 229.535156 348.257812 230.605469 C 352.199219 240.292969 353.101562 250.554688 354.742188 260.242188 C 354.824219 261.472656 354.90625 262.625 354.988281 263.855469 C 355.5625 273.542969 355.890625 283.640625 355.644531 292.425781 Z M 355.644531 292.425781 " fill-opacity="1" fill-rule="nonzero"/><path fill="#f2b2c3" d="M 351.621094 318.617188 C 350.0625 320.179688 346.039062 321.574219 343.332031 322.394531 C 341.933594 322.804688 340.867188 323.050781 340.703125 323.132812 C 340.703125 323.132812 340.457031 320.589844 340.210938 317.46875 C 340.210938 316.976562 340.128906 316.484375 340.128906 315.992188 C 340.046875 314.839844 339.964844 313.609375 339.882812 312.542969 C 339.636719 309.667969 339.472656 307.207031 339.472656 306.960938 C 339.472656 306.796875 340.867188 304.90625 342.839844 302.609375 C 344.152344 301.046875 345.792969 299.242188 347.4375 297.683594 C 349.160156 296.039062 350.882812 294.644531 352.28125 293.90625 C 354.003906 293.082031 355.316406 293.332031 355.5625 295.546875 C 355.5625 295.628906 355.5625 295.710938 355.5625 295.875 C 356.054688 305.070312 354.003906 316.074219 351.621094 318.617188 Z M 351.621094 318.617188 " fill-opacity="1" fill-rule="nonzero"/><path fill="#f2b2c3" d="M 329.210938 265.742188 L 330.6875 302.855469 L 291.03125 312.132812 C 291.03125 312.132812 326.992188 320.507812 329.210938 319.4375 C 331.425781 318.371094 349.324219 306.136719 349.160156 305.152344 C 348.996094 304.25 346.449219 293.496094 346.039062 292.917969 C 345.628906 292.425781 329.210938 265.742188 329.210938 265.742188 Z M 329.210938 265.742188 " fill-opacity="1" fill-rule="nonzero"/><path fill="#f2b2c3" d="M 335.53125 247.433594 C 335.613281 247.679688 343.085938 246.859375 347.683594 246.367188 C 349.734375 246.121094 351.210938 245.957031 351.210938 245.957031 C 351.210938 245.957031 351.210938 245.464844 351.128906 244.644531 L 351.128906 244.5625 C 351.046875 242.835938 350.800781 239.71875 350.308594 236.351562 C 349.980469 234.378906 349.652344 232.410156 349.160156 230.523438 C 349.160156 230.441406 349.160156 230.441406 349.160156 230.359375 C 348.996094 229.78125 348.832031 229.207031 348.667969 228.714844 C 348.09375 226.828125 347.355469 225.183594 346.449219 224.035156 C 343.25 219.929688 333.230469 218.535156 333.230469 218.535156 C 333.230469 218.535156 333.394531 221.078125 333.726562 224.691406 C 334.300781 233.066406 335.367188 247.1875 335.53125 247.433594 Z M 335.53125 247.433594 " fill-opacity="1" fill-rule="nonzero"/><g clip-path="url(#5b20a8fab0)"><path fill="#4154f1" d="M 329.949219 217.714844 C 329.949219 217.714844 350.800781 217.960938 352.609375 234.957031 C 354.414062 251.949219 356.140625 270.175781 356.140625 270.175781 L 328.714844 271.492188 C 328.632812 271.410156 325.515625 226.664062 329.949219 217.714844 Z M 329.949219 217.714844 " fill-opacity="1" fill-rule="nonzero"/></g><path fill="#332c5c" d="M 328.632812 271.65625 C 328.46875 271.65625 328.386719 271.574219 328.386719 271.410156 L 327.402344 251.457031 C 327.402344 251.292969 327.484375 251.210938 327.648438 251.210938 C 327.730469 251.210938 327.894531 251.292969 327.894531 251.457031 L 328.878906 271.410156 C 328.960938 271.574219 328.796875 271.65625 328.632812 271.65625 C 328.714844 271.65625 328.714844 271.65625 328.632812 271.65625 Z M 328.632812 271.65625 " fill-opacity="1" fill-rule="nonzero"/><path fill="#f2b2c3" d="M 352.28125 314.019531 C 351.210938 316.484375 349.242188 318.699219 346.941406 320.425781 C 345.792969 321.246094 344.5625 321.902344 343.25 322.394531 C 342.34375 322.722656 341.523438 322.96875 340.621094 323.132812 C 329.125 325.023438 304.988281 328.878906 283.476562 331.015625 C 263.28125 333.066406 245.464844 333.640625 242.917969 329.703125 C 239.308594 324.035156 293.414062 308.929688 325.515625 304.085938 C 328.878906 303.59375 332 303.183594 334.875 302.9375 C 337.910156 302.609375 340.621094 302.527344 342.675781 302.609375 C 344.726562 302.691406 346.367188 302.9375 347.273438 303.429688 C 347.847656 303.675781 348.339844 303.921875 348.832031 304.167969 C 349.40625 304.414062 349.898438 304.742188 350.390625 304.988281 C 353.59375 306.960938 354.496094 309.09375 352.28125 314.019531 Z M 352.28125 314.019531 " fill-opacity="1" fill-rule="nonzero"/><path fill="#f2b2c3" d="M 351.621094 318.617188 C 350.0625 320.179688 346.039062 321.574219 343.332031 322.394531 C 342.425781 322.722656 341.605469 322.96875 340.703125 323.132812 C 329.210938 325.023438 305.070312 328.878906 283.558594 331.015625 C 296.449219 328.796875 327.238281 323.214844 340.210938 317.46875 C 340.457031 317.386719 340.703125 317.222656 340.949219 317.140625 C 342.921875 316.238281 344.480469 315.25 345.382812 314.347656 C 347.765625 311.804688 348.996094 310.078125 349.652344 306.464844 C 350.882812 299.816406 350.882812 297.1875 351.046875 293.414062 C 351.210938 288.402344 350.636719 284.050781 350.0625 280.441406 C 348.832031 273.378906 338.160156 272.230469 332.902344 271.820312 C 331.917969 271.738281 330.277344 271.410156 330.277344 271.410156 L 355.316406 270.09375 C 356.222656 281.835938 355.972656 284.628906 355.5625 295.546875 C 355.5625 295.628906 355.5625 295.710938 355.5625 295.875 C 356.054688 305.070312 354.003906 316.074219 351.621094 318.617188 Z M 351.621094 318.617188 " fill-opacity="1" fill-rule="nonzero"/><path fill="#f2b2c3" d="M 254.085938 332 C 248.089844 334.300781 247.515625 332.65625 244.972656 331.097656 C 242.507812 329.539062 239.71875 332.328125 238.238281 332.65625 C 236.761719 332.984375 235.695312 335.613281 234.542969 335.449219 C 233.394531 335.285156 233.640625 333.148438 234.625 331.671875 C 235.613281 330.195312 240.375 327.566406 240.375 327.566406 C 240.375 327.566406 237.5 326.664062 235.121094 327.402344 C 232.820312 328.222656 229.945312 335.859375 228.058594 335.285156 C 226.253906 334.710938 230.851562 326.417969 230.851562 326.417969 C 230.851562 326.417969 226.335938 335.777344 224.199219 335.449219 C 221.984375 335.121094 226.828125 325.269531 228.46875 323.542969 C 230.109375 321.820312 238.894531 318.289062 241.195312 317.714844 C 243.492188 317.222656 248.667969 318.289062 251.046875 319.847656 C 253.429688 321.410156 255.644531 321.164062 255.890625 321.246094 L 257.203125 320.917969 L 256.464844 332 Z M 254.085938 332 " fill-opacity="1" fill-rule="nonzero"/><path fill="#332c5c" d="M 316.730469 181.425781 C 301.785156 181.753906 283.804688 169.027344 283.804688 168.453125 C 283.804688 168.453125 271.164062 174.199219 266.8125 189.882812 C 266.8125 189.882812 263.527344 190.621094 263.773438 190.046875 C 263.9375 189.46875 264.511719 168.535156 276.007812 163.363281 C 287.5 158.1875 297.515625 151.292969 305.808594 157.039062 C 314.101562 162.871094 316.730469 181.425781 316.730469 181.425781 Z M 316.730469 181.425781 " fill-opacity="1" fill-rule="nonzero"/><path fill="#f2b2c3" d="M 312.214844 183.558594 C 312.214844 183.558594 316.402344 180.027344 317.058594 184.296875 C 317.796875 188.566406 312.214844 196.777344 312.214844 196.777344 " fill-opacity="1" fill-rule="nonzero"/><path fill="#332c5c" d="M 152.03125 331.179688 C 152.03125 331.179688 159.257812 321.164062 165.167969 319.929688 C 170.996094 318.699219 177.320312 320.753906 179.207031 324.117188 C 181.097656 327.484375 178.632812 331.917969 178.632812 331.917969 C 178.632812 331.917969 162.292969 335.203125 157.941406 335.285156 C 153.589844 335.285156 152.359375 335.449219 152.03125 331.179688 Z M 152.03125 331.179688 " fill-opacity="1" fill-rule="nonzero"/><path fill="#f2b2c3" d="M 192.589844 325.105469 C 187.746094 325.515625 179.699219 327.15625 175.839844 329.867188 C 171.984375 332.574219 167.304688 334.957031 166.234375 332.738281 C 165.167969 330.523438 170.585938 327.566406 172.230469 326.582031 C 173.871094 325.515625 178.222656 325.1875 176.5 321.738281 C 174.773438 318.289062 170.09375 319.601562 166.972656 320.011719 C 163.855469 320.425781 159.257812 331.917969 156.054688 331.34375 C 152.851562 330.769531 161.0625 321.492188 159.339844 321.410156 C 157.613281 321.328125 152.933594 331.261719 151.621094 331.425781 C 150.390625 331.671875 151.210938 325.925781 152.195312 323.214844 C 153.097656 320.425781 159.503906 315.332031 161.472656 314.429688 C 163.445312 313.527344 169.355469 312.707031 172.558594 312.050781 C 175.757812 311.394531 192.34375 313.035156 192.34375 313.035156 " fill-opacity="1" fill-rule="nonzero"/><path fill="#332c5c" d="M 97.679688 309.339844 L 206.382812 309.339844 C 210.324219 309.339844 213.199219 305.726562 212.460938 301.867188 L 196.039062 222.640625 C 195.464844 219.765625 192.917969 217.714844 189.964844 217.714844 L 81.257812 217.714844 C 77.316406 217.714844 74.445312 221.328125 75.183594 225.183594 L 91.605469 304.414062 C 92.261719 307.289062 94.722656 309.339844 97.679688 309.339844 Z M 97.679688 309.339844 " fill-opacity="1" fill-rule="nonzero"/><path fill="#332c5c" d="M 70.421875 225.925781 L 86.597656 303.921875 C 87.253906 307.125 90.042969 309.339844 93.246094 309.339844 L 200.636719 309.339844 C 204.988281 309.339844 208.191406 305.398438 207.285156 301.128906 L 191.113281 223.132812 C 190.457031 219.929688 187.664062 217.714844 184.460938 217.714844 L 77.152344 217.714844 C 72.800781 217.714844 69.601562 221.65625 70.421875 225.925781 Z M 70.421875 225.925781 " fill-opacity="1" fill-rule="nonzero"/><path fill="#f4f6ff" d="M 82.902344 250.472656 C 82.820312 250.472656 82.65625 250.390625 82.65625 250.308594 L 78.46875 228.386719 C 78.304688 227.566406 78.550781 226.746094 79.042969 226.171875 C 79.535156 225.511719 80.355469 225.183594 81.09375 225.183594 L 117.136719 225.429688 C 117.300781 225.429688 117.382812 225.511719 117.382812 225.675781 C 117.382812 225.84375 117.300781 225.925781 117.136719 225.925781 L 81.09375 225.675781 C 80.4375 225.675781 79.78125 226.007812 79.371094 226.5 C 78.960938 226.992188 78.796875 227.648438 78.878906 228.304688 L 83.148438 250.144531 C 83.230469 250.308594 83.066406 250.390625 82.902344 250.472656 C 82.984375 250.472656 82.902344 250.472656 82.902344 250.472656 Z M 82.902344 250.472656 " fill-opacity="1" fill-rule="nonzero"/><path fill="#332c5c" d="M 145.300781 309.339844 L 159.503906 309.339844 L 154.496094 285.695312 C 154.578125 285.695312 148.417969 301.128906 145.300781 309.339844 Z M 145.300781 309.339844 " fill-opacity="1" fill-rule="nonzero"/><path fill="#332c5c" d="M 152.769531 330.277344 L 120.421875 330.277344 L 123.214844 282.820312 L 155.644531 282.820312 Z M 152.769531 330.277344 " fill-opacity="1" fill-rule="nonzero"/><path fill="#332c5c" d="M 173.453125 333.683594 L 105.144531 333.683594 L 105.144531 328.347656 L 173.453125 328.347656 Z M 173.453125 333.683594 " fill-opacity="1" fill-rule="nonzero"/><path fill="#f4f6ff" d="M 145.394531 258.535156 C 145.53125 259.210938 145.613281 259.890625 145.640625 260.574219 C 145.667969 261.261719 145.640625 261.9375 145.558594 262.605469 C 145.476562 263.269531 145.339844 263.917969 145.148438 264.542969 C 144.957031 265.167969 144.71875 265.757812 144.425781 266.3125 C 144.136719 266.871094 143.800781 267.382812 143.417969 267.851562 C 143.039062 268.320312 142.621094 268.738281 142.167969 269.101562 C 141.710938 269.460938 141.230469 269.765625 140.714844 270.003906 C 140.203125 270.246094 139.675781 270.425781 139.125 270.535156 C 138.574219 270.648438 138.019531 270.691406 137.453125 270.671875 C 136.886719 270.648438 136.324219 270.558594 135.761719 270.40625 C 135.203125 270.25 134.65625 270.03125 134.121094 269.746094 C 133.589844 269.464844 133.078125 269.125 132.59375 268.726562 C 132.109375 268.328125 131.65625 267.878906 131.234375 267.378906 C 130.816406 266.878906 130.4375 266.335938 130.097656 265.753906 C 129.761719 265.171875 129.472656 264.5625 129.230469 263.917969 C 128.988281 263.277344 128.796875 262.621094 128.660156 261.945312 C 128.523438 261.265625 128.4375 260.585938 128.410156 259.902344 C 128.382812 259.21875 128.410156 258.539062 128.492188 257.875 C 128.578125 257.207031 128.714844 256.558594 128.902344 255.933594 C 129.09375 255.3125 129.335938 254.71875 129.625 254.164062 C 129.917969 253.605469 130.253906 253.09375 130.632812 252.625 C 131.011719 252.15625 131.429688 251.738281 131.886719 251.378906 C 132.339844 251.015625 132.824219 250.714844 133.335938 250.472656 C 133.847656 250.230469 134.378906 250.054688 134.925781 249.941406 C 135.476562 249.828125 136.035156 249.785156 136.601562 249.804688 C 137.164062 249.828125 137.730469 249.917969 138.289062 250.074219 C 138.847656 250.226562 139.394531 250.445312 139.929688 250.730469 C 140.460938 251.011719 140.972656 251.351562 141.457031 251.75 C 141.945312 252.152344 142.398438 252.601562 142.816406 253.101562 C 143.238281 253.601562 143.617188 254.140625 143.953125 254.722656 C 144.289062 255.304688 144.582031 255.914062 144.824219 256.558594 C 145.066406 257.199219 145.253906 257.855469 145.394531 258.535156 Z M 145.394531 258.535156 " fill-opacity="1" fill-rule="nonzero"/><path fill="#332c5c" d="M 38.730469 333.644531 L 354.003906 333.644531 L 354.003906 335.695312 L 38.730469 335.695312 Z M 38.730469 333.644531 " fill-opacity="1" fill-rule="nonzero"/><path fill="#ffffff" d="M 320.632812 186.488281 C 320.707031 187.273438 320.734375 188.050781 320.722656 188.828125 C 320.707031 189.605469 320.652344 190.363281 320.554688 191.101562 C 320.457031 191.839844 320.320312 192.546875 320.140625 193.222656 C 319.960938 193.894531 319.746094 194.523438 319.492188 195.105469 C 319.238281 195.6875 318.953125 196.210938 318.636719 196.679688 C 318.320312 197.148438 317.976562 197.550781 317.605469 197.886719 C 317.238281 198.222656 316.851562 198.488281 316.441406 198.679688 C 316.035156 198.871094 315.617188 198.984375 315.1875 199.023438 C 314.757812 199.0625 314.324219 199.027344 313.890625 198.910156 C 313.457031 198.796875 313.027344 198.609375 312.601562 198.34375 C 312.175781 198.082031 311.765625 197.75 311.371094 197.347656 C 310.972656 196.941406 310.597656 196.480469 310.242188 195.953125 C 309.886719 195.425781 309.5625 194.847656 309.261719 194.21875 C 308.964844 193.589844 308.699219 192.917969 308.46875 192.210938 C 308.238281 191.5 308.046875 190.765625 307.890625 190.003906 C 307.738281 189.242188 307.625 188.472656 307.550781 187.6875 C 307.480469 186.902344 307.453125 186.125 307.464844 185.347656 C 307.476562 184.570312 307.535156 183.8125 307.632812 183.074219 C 307.730469 182.335938 307.867188 181.628906 308.046875 180.953125 C 308.226562 180.28125 308.441406 179.652344 308.695312 179.070312 C 308.949219 178.488281 309.230469 177.964844 309.550781 177.496094 C 309.867188 177.027344 310.210938 176.625 310.578125 176.289062 C 310.949219 175.953125 311.335938 175.6875 311.742188 175.496094 C 312.152344 175.304688 312.570312 175.191406 313 175.152344 C 313.429688 175.113281 313.859375 175.148438 314.296875 175.261719 C 314.730469 175.378906 315.160156 175.566406 315.585938 175.832031 C 316.007812 176.09375 316.421875 176.425781 316.816406 176.828125 C 317.214844 177.230469 317.589844 177.695312 317.945312 178.222656 C 318.296875 178.75 318.625 179.328125 318.921875 179.957031 C 319.222656 180.585938 319.488281 181.257812 319.71875 181.964844 C 319.949219 182.675781 320.140625 183.410156 320.292969 184.171875 C 320.449219 184.933594 320.5625 185.703125 320.632812 186.488281 Z M 320.632812 186.488281 " fill-opacity="1" fill-rule="nonzero"/><path fill="#4154f1" d="M 322.851562 186.128906 C 322.925781 186.960938 322.957031 187.789062 322.945312 188.613281 C 322.929688 189.4375 322.875 190.242188 322.773438 191.027344 C 322.667969 191.8125 322.523438 192.5625 322.339844 193.277344 C 322.152344 193.992188 321.925781 194.65625 321.660156 195.273438 C 321.394531 195.890625 321.097656 196.449219 320.765625 196.945312 C 320.429688 197.441406 320.070312 197.871094 319.683594 198.226562 C 319.296875 198.582031 318.890625 198.863281 318.460938 199.066406 C 318.035156 199.269531 317.59375 199.390625 317.144531 199.429688 C 316.691406 199.472656 316.238281 199.433594 315.78125 199.3125 C 315.324219 199.1875 314.875 198.988281 314.425781 198.707031 C 313.980469 198.425781 313.550781 198.074219 313.132812 197.644531 C 312.714844 197.21875 312.320312 196.722656 311.949219 196.164062 C 311.574219 195.605469 311.230469 194.992188 310.917969 194.324219 C 310.605469 193.652344 310.324219 192.941406 310.082031 192.191406 C 309.839844 191.4375 309.636719 190.65625 309.472656 189.847656 C 309.308594 189.039062 309.191406 188.222656 309.113281 187.390625 C 309.039062 186.558594 309.007812 185.730469 309.019531 184.90625 C 309.03125 184.082031 309.089844 183.277344 309.191406 182.492188 C 309.292969 181.707031 309.4375 180.957031 309.625 180.242188 C 309.8125 179.527344 310.039062 178.859375 310.304688 178.242188 C 310.570312 177.625 310.867188 177.070312 311.199219 176.570312 C 311.535156 176.074219 311.894531 175.648438 312.28125 175.292969 C 312.667969 174.9375 313.074219 174.65625 313.503906 174.453125 C 313.929688 174.25 314.371094 174.128906 314.820312 174.085938 C 315.269531 174.046875 315.726562 174.085938 316.183594 174.207031 C 316.640625 174.328125 317.089844 174.53125 317.535156 174.808594 C 317.984375 175.089844 318.414062 175.445312 318.832031 175.871094 C 319.25 176.300781 319.644531 176.792969 320.015625 177.351562 C 320.390625 177.914062 320.734375 178.527344 321.046875 179.195312 C 321.359375 179.863281 321.640625 180.574219 321.882812 181.328125 C 322.125 182.082031 322.328125 182.859375 322.492188 183.667969 C 322.652344 184.476562 322.773438 185.296875 322.851562 186.128906 Z M 322.851562 186.128906 " fill-opacity="1" fill-rule="nonzero"/><path fill="#ffffff" d="M 321.058594 186.425781 C 321.109375 186.996094 321.132812 187.5625 321.125 188.125 C 321.121094 188.6875 321.082031 189.238281 321.019531 189.773438 C 320.953125 190.3125 320.863281 190.824219 320.742188 191.3125 C 320.621094 191.800781 320.472656 192.253906 320.300781 192.675781 C 320.128906 193.097656 319.9375 193.476562 319.71875 193.816406 C 319.503906 194.15625 319.269531 194.445312 319.015625 194.6875 C 318.761719 194.929688 318.496094 195.121094 318.21875 195.257812 C 317.9375 195.394531 317.648438 195.480469 317.355469 195.503906 C 317.058594 195.53125 316.761719 195.503906 316.460938 195.417969 C 316.164062 195.335938 315.867188 195.195312 315.574219 195.003906 C 315.28125 194.8125 314.996094 194.566406 314.722656 194.273438 C 314.449219 193.980469 314.1875 193.640625 313.941406 193.257812 C 313.695312 192.875 313.46875 192.453125 313.261719 191.996094 C 313.054688 191.539062 312.871094 191.050781 312.710938 190.535156 C 312.550781 190.019531 312.414062 189.488281 312.304688 188.933594 C 312.195312 188.382812 312.117188 187.820312 312.0625 187.25 C 312.011719 186.683594 311.988281 186.117188 311.996094 185.554688 C 312 184.988281 312.039062 184.441406 312.101562 183.902344 C 312.167969 183.367188 312.257812 182.855469 312.378906 182.367188 C 312.5 181.878906 312.648438 181.425781 312.820312 181.003906 C 312.992188 180.582031 313.183594 180.203125 313.402344 179.863281 C 313.617188 179.523438 313.851562 179.234375 314.105469 178.992188 C 314.359375 178.746094 314.625 178.558594 314.902344 178.421875 C 315.183594 178.28125 315.46875 178.199219 315.765625 178.171875 C 316.0625 178.144531 316.359375 178.175781 316.660156 178.257812 C 316.957031 178.34375 317.253906 178.480469 317.546875 178.675781 C 317.839844 178.867188 318.125 179.109375 318.398438 179.40625 C 318.671875 179.699219 318.933594 180.035156 319.179688 180.417969 C 319.425781 180.804688 319.648438 181.222656 319.859375 181.683594 C 320.066406 182.140625 320.25 182.625 320.410156 183.140625 C 320.570312 183.65625 320.707031 184.191406 320.816406 184.746094 C 320.925781 185.296875 321.003906 185.859375 321.058594 186.425781 Z M 321.058594 186.425781 " fill-opacity="1" fill-rule="nonzero"/><path fill="#332c5c" d="M 318.113281 186.695312 C 318.152344 187.097656 318.148438 187.488281 318.101562 187.867188 C 318.058594 188.242188 317.972656 188.582031 317.855469 188.878906 C 317.734375 189.175781 317.585938 189.410156 317.410156 189.578125 C 317.234375 189.75 317.042969 189.84375 316.835938 189.863281 C 316.632812 189.882812 316.425781 189.824219 316.222656 189.6875 C 316.019531 189.550781 315.828125 189.347656 315.65625 189.078125 C 315.488281 188.808594 315.34375 188.492188 315.230469 188.128906 C 315.117188 187.765625 315.042969 187.382812 315.007812 186.980469 C 314.96875 186.582031 314.972656 186.191406 315.019531 185.8125 C 315.0625 185.433594 315.144531 185.097656 315.265625 184.800781 C 315.386719 184.503906 315.535156 184.269531 315.710938 184.097656 C 315.886719 183.929688 316.078125 183.832031 316.28125 183.8125 C 316.488281 183.796875 316.695312 183.855469 316.898438 183.988281 C 317.101562 184.125 317.292969 184.328125 317.460938 184.597656 C 317.632812 184.871094 317.777344 185.1875 317.890625 185.550781 C 318.003906 185.914062 318.078125 186.296875 318.113281 186.695312 Z M 318.113281 186.695312 " fill-opacity="1" fill-rule="nonzero"/><path fill="#332c5c" d="M 296.613281 204.578125 L 296.285156 203.59375 C 304.578125 200.882812 309.421875 196.449219 312.132812 193.328125 C 315.003906 189.882812 315.910156 187.007812 315.910156 187.007812 L 316.894531 187.335938 C 316.8125 187.746094 312.953125 199.160156 296.613281 204.578125 Z M 296.613281 204.578125 " fill-opacity="1" fill-rule="nonzero"/><path fill="#4154f1" d="M 298.75 205.152344 L 293.90625 206.464844 C 293.167969 206.628906 292.34375 206.21875 292.179688 205.480469 L 292.097656 205.070312 C 291.933594 204.332031 292.34375 203.511719 293.082031 203.347656 L 297.929688 202.03125 C 298.667969 201.867188 299.488281 202.277344 299.652344 203.015625 L 299.734375 203.429688 C 299.980469 204.167969 299.570312 204.988281 298.75 205.152344 Z M 298.75 205.152344 " fill-opacity="1" fill-rule="nonzero"/><path fill="#4154f1" d="M 312.542969 175.265625 C 312.542969 175.183594 310.898438 168.863281 306.546875 162.871094 C 300.800781 155.070312 291.113281 151.046875 281.917969 152.113281 C 283.230469 150.636719 285.039062 149.816406 287.007812 149.816406 C 308.765625 149.652344 315.167969 174.363281 315.25 174.609375 Z M 312.542969 175.265625 " fill-opacity="1" fill-rule="nonzero"/><path fill="#332c5c" d="M 338.40625 305.890625 C 338.40625 305.890625 338.324219 305.890625 338.324219 305.890625 L 330.605469 303.101562 C 330.441406 303.019531 330.441406 302.9375 330.441406 302.773438 C 330.523438 302.609375 330.605469 302.609375 330.769531 302.609375 L 338.488281 305.398438 C 338.652344 305.480469 338.652344 305.5625 338.652344 305.726562 C 338.652344 305.890625 338.488281 305.890625 338.40625 305.890625 Z M 338.40625 305.890625 " fill-opacity="1" fill-rule="nonzero"/><path fill="#332c5c" d="M 247.679688 303.429688 C 247.679688 303.429688 247.597656 303.429688 247.597656 303.429688 L 240.375 300.882812 C 240.210938 300.800781 240.210938 300.71875 240.210938 300.554688 C 240.210938 300.390625 240.375 300.390625 240.539062 300.390625 L 247.761719 302.9375 C 247.925781 303.019531 247.925781 303.101562 247.925781 303.265625 C 247.925781 303.429688 247.84375 303.429688 247.679688 303.429688 Z M 247.679688 303.429688 " fill-opacity="1" fill-rule="nonzero"/><path fill="#332c5c" d="M 276.664062 285.039062 C 274.691406 285.039062 272.886719 285.039062 271.328125 284.957031 C 271.164062 284.957031 271.082031 284.875 271.082031 284.710938 C 271.082031 284.546875 271.164062 284.464844 271.328125 284.464844 C 280.113281 284.710938 296.777344 284.546875 309.667969 280.277344 C 309.832031 280.195312 309.914062 280.277344 309.996094 280.441406 C 310.078125 280.605469 309.996094 280.6875 309.832031 280.769531 C 299.160156 284.21875 285.941406 285.039062 276.664062 285.039062 Z M 276.664062 285.039062 " fill-opacity="1" fill-rule="nonzero"/><path fill="#f4f6ff" d="M 169.683594 54.246094 L 182.410156 43.820312 L 182.410156 65.25 Z M 169.683594 54.246094 " fill-opacity="1" fill-rule="nonzero"/><path fill="#f4f6ff" d="M 150.308594 54.246094 L 137.582031 65.25 L 137.582031 43.820312 Z M 150.308594 54.246094 " fill-opacity="1" fill-rule="nonzero"/><path fill="#f4f6ff" d="M 168.289062 55.316406 L 181.425781 66.726562 L 138.648438 66.726562 L 151.703125 55.316406 L 159.996094 62.046875 Z M 168.289062 55.316406 " fill-opacity="1" fill-rule="nonzero"/><g clip-path="url(#f5ddf919c4)"><path fill="#f4f6ff" d="M 182.410156 39.386719 L 182.410156 41.523438 L 168.289062 53.015625 L 167.550781 53.589844 L 166.890625 54.164062 L 159.996094 59.75 L 153.097656 54.164062 L 152.441406 53.589844 L 151.703125 53.015625 L 137.582031 41.523438 L 137.582031 39.386719 C 137.582031 39.222656 137.664062 39.140625 137.828125 39.140625 L 182.164062 39.140625 C 182.328125 39.140625 182.410156 39.222656 182.410156 39.386719 Z M 182.410156 39.386719 " fill-opacity="1" fill-rule="nonzero"/></g><path fill="#f4f6ff" d="M 136.84375 67.136719 C 136.84375 67.136719 136.84375 67.21875 136.925781 67.21875 C 136.84375 67.21875 136.84375 67.136719 136.84375 67.136719 Z M 136.84375 67.136719 " fill-opacity="1" fill-rule="nonzero"/><path fill="#f4f6ff" d="M 136.84375 67.21875 C 136.84375 67.21875 136.761719 67.136719 136.761719 67.136719 C 136.84375 67.136719 136.84375 67.21875 136.84375 67.21875 Z M 136.84375 67.21875 " fill-opacity="1" fill-rule="nonzero"/><path fill="#f4f6ff" d="M 153.097656 54.164062 L 152.359375 53.589844 L 159.996094 47.023438 L 167.632812 53.589844 L 166.890625 54.164062 L 159.996094 59.832031 Z M 153.097656 54.164062 " fill-opacity="1" fill-rule="nonzero"/><path fill="#f4f6ff" d="M 181.425781 66.726562 L 138.648438 66.726562 L 151.703125 55.316406 L 159.996094 62.046875 L 168.289062 55.316406 Z M 181.425781 66.726562 " fill-opacity="1" fill-rule="nonzero"/><path fill="#f4f6ff" d="M 136.84375 67.136719 C 136.84375 67.136719 136.84375 67.21875 136.925781 67.21875 C 136.84375 67.21875 136.84375 67.136719 136.84375 67.136719 Z M 159.996094 45.789062 L 151.703125 53.015625 L 152.441406 53.589844 L 153.097656 54.164062 L 159.996094 48.171875 L 166.890625 54.164062 L 167.550781 53.589844 L 168.289062 53.015625 Z M 159.996094 45.789062 " fill-opacity="1" fill-rule="nonzero"/><g clip-path="url(#bbf06e18b5)"><path fill="#f4f6ff" d="M 182.410156 39.386719 L 182.410156 41.523438 L 168.289062 53.015625 L 167.550781 53.589844 L 166.890625 54.164062 L 159.996094 59.75 L 153.097656 54.164062 L 152.441406 53.589844 L 151.703125 53.015625 L 137.582031 41.523438 L 137.582031 39.386719 C 137.582031 39.222656 137.664062 39.140625 137.828125 39.140625 L 182.164062 39.140625 C 182.328125 39.140625 182.410156 39.222656 182.410156 39.386719 Z M 182.410156 39.386719 " fill-opacity="1" fill-rule="nonzero"/></g><path fill="#4154f1" d="M 54.820312 301.867188 L 56.382812 301.621094 L 54.90625 302.527344 C 55.726562 306.546875 58.1875 309.339844 58.351562 309.585938 C 58.925781 310.242188 61.144531 308.765625 61.554688 308.355469 C 63.195312 306.878906 63.9375 304.824219 64.59375 302.773438 C 65.414062 300.308594 66.234375 297.929688 67.300781 295.546875 C 68.121094 293.660156 69.027344 291.851562 69.929688 289.964844 L 69.191406 287.664062 L 71.160156 287.5 C 71.324219 287.089844 71.488281 286.679688 71.734375 286.269531 C 72.554688 284.382812 73.296875 282.574219 73.953125 280.6875 C 73.625 280.769531 64.511719 284.21875 59.007812 289.882812 L 59.75 291.03125 L 57.695312 291.441406 C 57.039062 292.34375 56.382812 293.25 55.972656 294.234375 C 54.65625 296.941406 54.492188 299.570312 54.820312 301.867188 Z M 54.820312 301.867188 " fill-opacity="1" fill-rule="nonzero"/><path fill="#4154f1" d="M 35.855469 296.613281 C 36.019531 296.859375 36.183594 297.105469 36.347656 297.269531 C 38.074219 299.652344 39.878906 301.867188 41.933594 304.003906 L 42.917969 303.347656 C 42.917969 303.347656 42.589844 304.003906 42.34375 304.496094 C 44.066406 306.300781 45.957031 308.027344 47.925781 309.667969 C 48.417969 310.078125 49.074219 310.570312 49.730469 310.816406 L 50.554688 309.914062 C 50.554688 309.914062 50.554688 310.570312 50.554688 311.0625 C 50.882812 311.144531 51.128906 311.144531 51.457031 311.0625 C 51.867188 310.980469 53.34375 310.734375 53.507812 310.324219 C 53.507812 310.324219 55.480469 305.890625 51.703125 301.949219 C 51.292969 301.539062 50.882812 301.210938 50.390625 300.882812 L 49.730469 301.703125 L 48.664062 299.898438 C 47.679688 299.40625 46.613281 299.078125 45.542969 298.75 C 43.246094 298.011719 40.945312 297.433594 38.566406 297.023438 C 37.746094 296.941406 36.757812 296.777344 35.855469 296.613281 Z M 35.855469 296.613281 " fill-opacity="1" fill-rule="nonzero"/><path fill="#4154f1" d="M 63.359375 313.445312 C 65.90625 314.59375 68.945312 313.609375 71.652344 311.96875 C 71.324219 311.230469 70.585938 309.75 70.503906 309.667969 C 70.421875 309.585938 71.816406 310.652344 72.636719 311.3125 C 76.496094 308.683594 79.617188 305.152344 79.617188 305.152344 C 79.617188 305.152344 69.355469 304.496094 65.496094 306.464844 C 65.085938 306.632812 64.757812 306.878906 64.511719 307.125 L 64.839844 307.945312 L 64.019531 307.699219 C 62.210938 309.996094 63.359375 313.445312 63.359375 313.445312 Z M 63.359375 313.445312 " fill-opacity="1" fill-rule="nonzero"/><path fill="#332c5c" d="M 58.433594 321 C 58.433594 320.753906 54.988281 298.585938 67.875 286.1875 L 68.203125 286.515625 C 55.480469 298.75 58.84375 320.671875 58.84375 320.917969 Z M 58.433594 321 " fill-opacity="1" fill-rule="nonzero"/><path fill="#332c5c" d="M 57.941406 324.117188 C 57.941406 323.953125 56.546875 306.796875 42.261719 301.046875 L 42.425781 300.636719 C 56.957031 306.464844 58.351562 323.871094 58.351562 324.035156 Z M 57.941406 324.117188 " fill-opacity="1" fill-rule="nonzero"/><path fill="#332c5c" d="M 59.089844 319.847656 L 58.679688 319.601562 C 58.761719 319.519531 64.59375 308.519531 73.542969 306.464844 L 73.625 306.960938 C 64.921875 308.929688 59.171875 319.765625 59.089844 319.847656 Z M 59.089844 319.847656 " fill-opacity="1" fill-rule="nonzero"/><path fill="#332c5c" d="M 49.238281 319.027344 L 53.589844 334.710938 L 62.703125 334.710938 L 67.054688 319.027344 C 67.054688 319.027344 67.054688 319.027344 67.054688 318.945312 L 67.054688 318.863281 L 49.238281 318.863281 Z M 49.238281 319.027344 " fill-opacity="1" fill-rule="nonzero"/><path fill="#332c5c" d="M 261.144531 272.476562 C 260.980469 272.476562 260.898438 272.394531 260.898438 272.230469 C 260.898438 272.066406 259.75 258.519531 262.625 247.679688 C 262.625 247.515625 262.789062 247.433594 262.953125 247.515625 C 263.117188 247.515625 263.199219 247.679688 263.117188 247.84375 C 260.242188 258.601562 261.390625 272.066406 261.390625 272.230469 C 261.472656 272.394531 261.308594 272.476562 261.144531 272.476562 C 261.226562 272.476562 261.226562 272.476562 261.144531 272.476562 Z M 261.144531 272.476562 " fill-opacity="1" fill-rule="nonzero"/><path fill="#f4f6ff" d="M 270.257812 41.769531 C 260.734375 41.769531 252.9375 49.484375 252.855469 59.007812 C 252.855469 68.535156 260.570312 76.332031 270.09375 76.414062 C 279.617188 76.414062 287.417969 68.699219 287.5 59.171875 C 287.5 49.566406 279.785156 41.769531 270.257812 41.769531 Z M 270.175781 43.738281 C 271.410156 44.96875 274.199219 48.253906 275.679688 52.933594 C 271.984375 54 268.289062 54 264.59375 52.851562 C 266.152344 48.171875 269.027344 44.96875 270.175781 43.738281 Z M 276.089844 63.6875 C 272.148438 62.539062 268.207031 62.539062 264.265625 63.6875 C 263.445312 60.242188 263.527344 57.121094 264.183594 54.410156 C 266.152344 54.988281 268.207031 55.316406 270.257812 55.316406 C 272.230469 55.316406 274.199219 54.988281 276.171875 54.492188 C 276.828125 57.203125 276.910156 60.324219 276.089844 63.6875 Z M 275.597656 65.25 C 274.609375 68.121094 272.886719 71.160156 270.09375 74.363281 C 267.386719 71.160156 265.660156 68.121094 264.675781 65.25 C 268.289062 64.183594 271.984375 64.183594 275.597656 65.25 Z M 277.648438 54 C 279.703125 53.261719 281.671875 52.277344 283.558594 50.964844 C 285.039062 53.34375 285.859375 56.136719 285.859375 59.171875 C 285.859375 62.128906 284.957031 64.921875 283.476562 67.300781 C 281.589844 65.988281 279.617188 64.921875 277.566406 64.183594 C 278.550781 60.40625 278.386719 57.039062 277.648438 54 Z M 282.65625 49.566406 C 280.933594 50.800781 279.042969 51.703125 277.238281 52.441406 C 275.925781 48.417969 273.707031 45.296875 272.230469 43.574219 C 276.5 44.066406 280.195312 46.367188 282.65625 49.566406 Z M 268.207031 43.492188 C 266.730469 45.214844 264.511719 48.253906 263.199219 52.277344 C 261.390625 51.621094 259.585938 50.636719 257.78125 49.402344 C 260.324219 46.203125 264.019531 44.066406 268.207031 43.492188 Z M 256.875 50.71875 C 258.765625 52.03125 260.734375 53.097656 262.707031 53.835938 C 261.96875 56.875 261.722656 60.324219 262.707031 64.101562 C 260.734375 64.839844 258.765625 65.90625 256.792969 67.21875 C 255.316406 64.839844 254.414062 61.964844 254.414062 58.925781 C 254.496094 55.972656 255.398438 53.179688 256.875 50.71875 Z M 257.78125 68.617188 C 259.585938 67.382812 261.390625 66.398438 263.199219 65.742188 C 264.101562 68.535156 265.742188 71.570312 268.207031 74.609375 C 263.9375 74.117188 260.242188 71.816406 257.78125 68.617188 Z M 271.984375 74.609375 C 274.527344 71.570312 276.171875 68.535156 277.074219 65.742188 C 278.960938 66.398438 280.769531 67.382812 282.492188 68.617188 C 280.03125 71.898438 276.335938 74.117188 271.984375 74.609375 Z M 271.984375 74.609375 " fill-opacity="1" fill-rule="nonzero"/></svg>