<?xml version="1.0" encoding="UTF-8"?>
<svg xmlns="http://www.w3.org/2000/svg" fill="#fff" id="Layer_1" data-name="Layer 1" viewBox="0 0 24 24">
  <path d="m23.235,8.817c-1.565-4.206-5.432-7.243-9.85-7.739-3.468-.387-6.801.667-9.381,2.973C1.46,6.326,0,9.588,0,13c0,3.073,1.261,6.138,3.459,8.408.979,1.012,2.391,1.592,3.874,1.592h9.332c1.488,0,2.908-.587,3.896-1.611,3.271-3.396,4.297-8.213,2.674-12.571Zm-3.394,11.877c-.801.83-1.959,1.306-3.177,1.306H7.333c-1.214,0-2.364-.469-3.155-1.287-2.02-2.086-3.178-4.897-3.178-7.713,0-3.128,1.338-6.117,3.672-8.204,2.043-1.826,4.601-2.797,7.312-2.797.427,0,.857.024,1.291.073,4.046.454,7.588,3.238,9.023,7.095,1.487,3.994.546,8.411-2.456,11.527Zm-1.988-13.548c-.195-.195-.512-.195-.707,0l-4.137,4.137c-.297-.176-.64-.284-1.009-.284-1.103,0-2,.897-2,2s.897,2,2,2,2-.897,2-2c0-.37-.108-.712-.284-1.009l4.137-4.137c.195-.195.195-.512,0-.707Zm-5.854,6.854c-.552,0-1-.448-1-1s.448-1,1-1,1,.448,1,1-.448,1-1,1Zm7.334-4.2c.442,1.012.666,2.088.666,3.2,0,1.972-.724,3.866-2.038,5.334-.099.109-.235.166-.372.166-.119,0-.238-.042-.334-.128-.205-.184-.223-.5-.038-.706,1.149-1.283,1.782-2.94,1.782-4.666,0-.974-.196-1.915-.582-2.8-.11-.253.005-.548.258-.658.254-.107.548.005.658.258Zm-7.334-3.8c-3.859,0-7,3.141-7,7,0,1.726.633,3.383,1.782,4.666.185.206.167.522-.038.706-.096.086-.215.128-.334.128-.137,0-.273-.057-.372-.166-1.314-1.468-2.038-3.362-2.038-5.334,0-4.411,3.589-8,8-8,1.112,0,2.188.224,3.2.666.253.11.368.405.258.658s-.404.368-.658.258c-.885-.386-1.826-.582-2.8-.582Z"/>
</svg>
