<?xml version="1.0" encoding="UTF-8"?>
<svg xmlns="http://www.w3.org/2000/svg" fill="#fff" id="Layer_1" data-name="Layer 1" viewBox="0 0 24 24">
  <path d="m16.5,0H7.5C5.019,0,3,2.019,3,4.5v15c0,2.481,2.019,4.5,4.5,4.5h9c2.481,0,4.5-2.019,4.5-4.5V4.5c0-2.481-2.019-4.5-4.5-4.5ZM7.5,1h9c1.93,0,3.5,1.57,3.5,3.5v12.5H4V4.5c0-1.93,1.57-3.5,3.5-3.5Zm9,22H7.5c-1.93,0-3.5-1.57-3.5-3.5v-1.5h16v1.5c0,1.93-1.57,3.5-3.5,3.5Zm-2.5-2.5c0,.276-.224.5-.5.5h-3c-.276,0-.5-.224-.5-.5s.224-.5.5-.5h3c.276,0,.5.224.5.5Z"/>
</svg>
